# xmcd
#
# Track frame offsets:
# 150
# 12018
# 23725
# 34111
# 47159
# 65734
# 82714
# 99861
# 115461
# 129701
# 149286
# 170097
# 183408
# 199061
# 212891
# 227302
#
# Disc length: 3557 seconds
#
#
# Revision: 0
# Processed by: cddbd v1.4PL0 Copyright (c) Steve Scherf et al.
# Submitted via: FreeRIP 2.00 
#
DISCID=d50de310
DTITLE=Mick Flavin - Mick Flavin Exclusively Live
DYEAR=1900
DGENRE=Country
TTITLE0=Hard Times
TTITLE1=Your the Reason
TTITLE2=Six Nights A Week
TTITLE3=Precious Jewel
TTITLE4=Native Town Drumlish
TTITLE5=Picture of Your Mother
TTITLE6=Legend And the Man
TTITLE7=She's not an Angel
TTITLE8=Beautiful bouquet
TTITLE9=I am an Island (Featuring Kevin Logue)
TTITLE10=Hank Williams Selection
TTITLE11=Scotland
TTITLE12=Adelida
TTITLE13=The Little Mountain Church House
TTITLE14=For the love of the song
TTITLE15=Mick Flavin Medley
EXTD=Recorded live in the Ardhowen theatre Enniskillen.
EXTT0=
EXTT1=
EXTT2=
EXTT3=
EXTT4=
EXTT5=
EXTT6=
EXTT7=
EXTT8=
EXTT9=
EXTT10=
EXTT11=
EXTT12=
EXTT13=
EXTT14=
EXTT15=
PLAYORDER=
